<svg width="92" height="115" viewBox="0 0 92 115" fill="none" xmlns="http://www.w3.org/2000/svg">
<path d="M46 83C66.9868 83 84 65.9868 84 45C84 24.0132 66.9868 7 46 7C25.0132 7 8 24.0132 8 45C8 65.9868 25.0132 83 46 83Z" fill="#3E874E" fill-opacity="0.25"/>
<path fill-rule="evenodd" clip-rule="evenodd" d="M46 84.3333C24.8285 84.3333 7.66669 67.1715 7.66669 46C7.66669 24.8285 24.8285 7.66669 46 7.66669C67.1715 7.66669 84.3334 24.8285 84.3334 46C84.3334 67.1715 67.1715 84.3333 46 84.3333ZM61.3334 49.8333C61.3334 53.9 59.7179 57.8001 56.8423 60.6756C53.9668 63.5512 50.0667 65.1667 46 65.1667C41.9334 65.1667 38.0333 63.5512 35.1577 60.6756C32.2822 57.8001 30.6667 53.9 30.6667 49.8333H61.3334ZM46 76.6667C54.1333 76.6667 61.9335 73.4357 67.6846 67.6846C73.4357 61.9335 76.6667 54.1333 76.6667 46C76.6667 37.8667 73.4357 30.0665 67.6846 24.3154C61.9335 18.5643 54.1333 15.3333 46 15.3333C37.8667 15.3333 30.0665 18.5643 24.3154 24.3154C18.5643 30.0665 15.3334 37.8667 15.3334 46C15.3334 54.1333 18.5643 61.9335 24.3154 67.6846C30.0665 73.4357 37.8667 76.6667 46 76.6667ZM36.4167 42.1667C37.9417 42.1667 39.4042 41.5609 40.4826 40.4825C41.5609 39.4042 42.1667 37.9417 42.1667 36.4167C42.1667 34.8917 41.5609 33.4291 40.4826 32.3508C39.4042 31.2725 37.9417 30.6667 36.4167 30.6667C34.8917 30.6667 33.4292 31.2725 32.3508 32.3508C31.2725 33.4291 30.6667 34.8917 30.6667 36.4167C30.6667 37.9417 31.2725 39.4042 32.3508 40.4825C33.4292 41.5609 34.8917 42.1667 36.4167 42.1667ZM55.5834 42.1667C57.1083 42.1667 58.5709 41.5609 59.6492 40.4825C60.7276 39.4042 61.3334 37.9417 61.3334 36.4167C61.3334 34.8917 60.7276 33.4291 59.6492 32.3508C58.5709 31.2725 57.1083 30.6667 55.5834 30.6667C54.0584 30.6667 52.5958 31.2725 51.5175 32.3508C50.4392 33.4291 49.8334 34.8917 49.8334 36.4167C49.8334 37.9417 50.4392 39.4042 51.5175 40.4825C52.5958 41.5609 54.0584 42.1667 55.5834 42.1667Z" fill="#3E874E"/>
<path d="M27.8555 109.922C27.5391 110.301 27.0918 110.596 26.5137 110.807C25.9355 111.014 25.2949 111.117 24.5918 111.117C23.8535 111.117 23.2051 110.957 22.6465 110.637C22.0918 110.312 21.6621 109.844 21.3574 109.23C21.0566 108.617 20.9023 107.896 20.8945 107.068V106.488C20.8945 105.637 21.0371 104.9 21.3223 104.279C21.6113 103.654 22.0254 103.178 22.5645 102.85C23.1074 102.518 23.7422 102.352 24.4688 102.352C25.4805 102.352 26.2715 102.594 26.8418 103.078C27.4121 103.559 27.75 104.26 27.8555 105.182H26.1445C26.0664 104.693 25.8926 104.336 25.623 104.109C25.3574 103.883 24.9902 103.77 24.5215 103.77C23.9238 103.77 23.4688 103.994 23.1562 104.443C22.8438 104.893 22.6855 105.561 22.6816 106.447V106.992C22.6816 107.887 22.8516 108.562 23.1914 109.02C23.5312 109.477 24.0293 109.705 24.6855 109.705C25.3457 109.705 25.8164 109.564 26.0977 109.283V107.812H24.498V106.518H27.8555V109.922ZM31.1543 111H29.3965V102.469H31.1543V111ZM34.6523 109.588H38.9531V111H32.4551V109.969L36.6738 103.893H32.4609V102.469H38.8594V103.477L34.6523 109.588ZM41.9355 111H40.1777V102.469H41.9355V111ZM46.5586 111V102.469H49.5469C50.582 102.469 51.3672 102.668 51.9023 103.066C52.4375 103.461 52.7051 104.041 52.7051 104.807C52.7051 105.225 52.5977 105.594 52.3828 105.914C52.168 106.23 51.8691 106.463 51.4863 106.611C51.9238 106.721 52.2676 106.941 52.5176 107.273C52.7715 107.605 52.8984 108.012 52.8984 108.492C52.8984 109.312 52.6367 109.934 52.1133 110.355C51.5898 110.777 50.8438 110.992 49.875 111H46.5586ZM48.3164 107.285V109.588H49.8223C50.2363 109.588 50.5586 109.49 50.7891 109.295C51.0234 109.096 51.1406 108.822 51.1406 108.475C51.1406 107.693 50.7363 107.297 49.9277 107.285H48.3164ZM48.3164 106.043H49.6172C50.5039 106.027 50.9473 105.674 50.9473 104.982C50.9473 104.596 50.834 104.318 50.6074 104.15C50.3848 103.979 50.0312 103.893 49.5469 103.893H48.3164V106.043ZM59.0391 109.242H55.957L55.3711 111H53.502L56.6777 102.469H58.3066L61.5 111H59.6309L59.0391 109.242ZM56.4316 107.818H58.5645L57.4922 104.625L56.4316 107.818ZM64.166 111H62.4082V102.469H64.166V111ZM68.4727 107.578L67.5586 108.562V111H65.8008V102.469H67.5586V106.336L68.332 105.275L70.5059 102.469H72.668L69.6387 106.26L72.7559 111H70.6641L68.4727 107.578Z" fill="#3E874E"/>
</svg>
