<svg width="100" height="28" viewBox="0 0 100 28" fill="none" xmlns="http://www.w3.org/2000/svg">
<path fill-rule="evenodd" clip-rule="evenodd" d="M0.806199 0.357852C0.564598 0.554706 0.284325 0.905389 0.183544 1.13724C-0.0611815 1.6998 -0.0611815 26.3002 0.183544 26.8628C0.284325 27.0946 0.564598 27.4453 0.806199 27.6421L1.24565 28H50H98.7543L99.1938 27.6421C99.4354 27.4453 99.7157 27.0946 99.8165 26.8628C100.061 26.3002 100.061 1.6998 99.8165 1.13724C99.7157 0.905389 99.4354 0.554706 99.1938 0.357852L98.7543 0H50H1.24565L0.806199 0.357852ZM74.9999 14.0854V24.5854H72.8515H70.7031V22.1787C70.7031 20.2399 70.6398 19.6787 70.3779 19.291C69.7019 18.2908 68.155 18.1317 67.2025 18.9644L66.6015 19.4897V22.0375V24.5854H64.4531H62.3046V19.4714C62.3046 15.9706 62.2336 14.2211 62.0793 13.925C61.4275 12.6746 59.3406 12.5939 58.4472 13.7847C58.1445 14.1881 58.0984 14.8313 58.0437 19.4129L57.982 24.5854H55.9582H53.9344L53.8715 22.0099L53.8086 19.4346L53.1707 18.9367C51.9902 18.0154 50.2312 18.4517 49.8127 19.7695C49.702 20.1177 49.6111 21.3435 49.6105 22.4939L49.6094 24.5854H47.5689H45.5287L45.4693 19.3354C45.4059 13.7121 45.3848 13.5914 44.3838 13.1231C43.5754 12.7448 42.5916 12.885 41.9168 13.4747L41.3086 14.0061L41.2494 19.2958L41.1901 24.5854H39.1498H37.1094V22.3604C37.1094 19.3104 36.6321 18.439 34.961 18.439C33.2899 18.439 32.8125 19.3104 32.8125 22.3604V24.5854H30.7618H28.711L28.7001 19.6768C28.6924 16.3358 28.6145 14.5825 28.4559 14.1868C27.835 12.6381 25.5026 12.4733 24.7159 13.9225C24.4649 14.385 24.4141 15.3278 24.4141 19.5319V24.5854H22.2657H20.1173V22.0375V19.4897L19.5163 18.9644C18.6936 18.2452 17.6507 18.2348 16.7513 18.9367L16.1134 19.4346L16.0505 22.0099L15.9876 24.5854H13.8532H11.7189V19.3022C11.7189 14.0674 11.7148 14.015 11.2794 13.5797C10.3667 12.6671 8.68118 12.733 8.0013 13.7077C7.64387 14.2202 7.61868 14.594 7.61809 19.4207L7.61731 24.5854H5.95716H4.29701V14.0854V3.58537H39.6485H74.9999V14.0854ZM96.0463 14.128L96.0965 24.5854H87.5991H79.1015V14.0835V3.58178L87.5487 3.62617L95.996 3.67073L96.0463 14.128ZM86.0046 8.70732C84.2001 9.03512 82.5341 10.1835 81.638 11.7175C81.2271 12.4209 81.1523 12.7852 81.1523 14.0854C81.1523 15.877 81.5405 16.7607 82.8429 17.9338C85.228 20.0823 89.3647 20.097 91.7311 17.9656C93.045 16.7821 93.4569 15.856 93.4569 14.0854C93.4569 12.7852 93.3821 12.4209 92.9712 11.7175C91.6573 9.46844 88.744 8.20963 86.0046 8.70732ZM88.5337 12.6369C90.0876 13.7053 89.252 15.878 87.2874 15.878C85.8516 15.878 84.8673 14.5933 85.4188 13.4393C85.5739 13.1149 85.9054 12.7243 86.1556 12.5711C86.7843 12.1861 87.9241 12.2177 88.5337 12.6369Z" fill="#333333"/>
</svg>
