<svg width="79" height="60" viewBox="0 0 79 60" fill="none" xmlns="http://www.w3.org/2000/svg">
<path fill-rule="evenodd" clip-rule="evenodd" d="M23.1445 0.0862896C17.2104 0.833633 12.7633 2.3791 8.71777 5.09973C4.29439 8.07441 1.45024 11.7793 0.268939 16.1058C0.0232988 17.005 0 18.2025 0 29.903V42.7155L0.442369 44.0436C1.7127 47.8566 4.33898 51.3136 7.95184 53.9286C10.902 56.0638 15.2652 57.9317 19.2897 58.7825C23.1646 59.6016 22.7255 59.5905 51.2778 59.5905H77.8681L78.3183 59.0802L78.7686 58.5699V48.1247C78.7686 37.8386 78.7638 37.6733 78.453 37.2732C78.2793 37.0497 77.8801 36.7946 77.5658 36.7061C77.1973 36.6025 72.8652 36.545 65.3833 36.5446L53.7725 36.5436V27.6578C53.7725 20.4438 53.7286 18.511 53.5392 17.3844C52.0737 8.66785 43.0265 1.69441 31.251 0.204884C29.6522 0.00254005 24.4167 -0.0740229 23.1445 0.0862896ZM29.3164 3.26191C33.7262 3.62113 37.2061 4.55441 40.7344 6.32395C48.2574 10.0971 51.9845 16.678 50.2227 23.0782C49.099 27.1607 45.6225 30.9907 40.8513 33.403C36.5224 35.5914 32.2393 36.5566 26.8432 36.5596C21.847 36.5624 17.5161 35.626 13.3961 33.6521C2.3575 28.3639 -0.245023 17.6811 7.65112 10.0718C11.57 6.2952 17.5556 3.80848 23.9932 3.28207C26.2916 3.0941 27.2143 3.09066 29.3164 3.26191ZM25.2704 10.9293C21.1888 11.3293 17.601 13.426 15.9299 16.3874C14.6756 18.6105 14.7616 21.56 16.145 23.7589C16.971 25.0718 18.7215 26.5964 20.3147 27.3908C22.6417 28.5508 23.7574 28.7897 26.8477 28.7897C29.0722 28.7897 29.6583 28.7375 30.7051 28.4463C33.2132 27.7486 35.6822 26.2408 36.9686 24.6214C42.1303 18.1235 35.1558 9.96019 25.2704 10.9293ZM29.8541 14.4368C32.1366 14.9966 34.4357 16.6132 35.1837 18.1843C35.6143 19.0888 35.592 20.78 35.1377 21.6521C34.3111 23.2393 32.2366 24.6889 29.9027 25.3103C28.3502 25.7238 25.6241 25.7586 24.0703 25.3847C21.6057 24.7919 19.3726 23.2436 18.563 21.5664C18.104 20.6158 18.0942 19.2464 18.5394 18.2524C18.9407 17.3558 20.1593 16.111 21.2374 15.4963C22.1834 14.9569 23.7159 14.4057 24.8418 14.1999C25.8927 14.0078 28.6336 14.1374 29.8541 14.4368ZM5.49544 31.9421C9.47784 35.7921 14.7244 38.2535 21.5244 39.4624C22.8458 39.6974 25.5857 39.7285 49.3364 39.7786L75.6826 39.8342V48.1108V56.3874H74.0625H72.4424V52.0289V47.6705L71.9948 47.1852C71.3722 46.5102 70.4575 46.4983 69.8075 47.1566L69.3564 47.6133V52.0003V56.3874H66.1162H62.876V53.8753V51.3633L62.425 50.9066C62.0915 50.5689 61.8274 50.4499 61.4118 50.4499C60.0315 50.4499 59.79 50.9839 59.79 54.0358V56.3874H56.627H53.4639V54.2975C53.4639 51.7933 53.3904 51.3556 52.8839 50.8427C52.144 50.0935 50.7339 50.4203 50.3895 51.421C50.2983 51.686 50.2236 52.9117 50.2236 54.145V56.3874H47.0605H43.8975V52.2569C43.8975 49.9852 43.8323 47.9528 43.7526 47.7407C43.3369 46.6333 42.1271 46.3517 41.2383 47.1556L40.7344 47.6113L40.6868 51.9994L40.6393 56.3874H37.6395H34.6396V54.145C34.6396 52.9117 34.565 51.686 34.4738 51.421C34.1294 50.4203 32.7193 50.0935 31.9794 50.8427C31.4729 51.3556 31.3994 51.7933 31.3994 54.2975V56.3874H28.2363H25.0732V54.0358C25.0732 51.5514 24.9396 50.9519 24.3102 50.6108C23.8264 50.3485 22.9868 50.4242 22.5534 50.7694C21.9958 51.2138 21.8349 51.9546 21.8339 54.0827C21.8329 56.2002 21.9702 56.073 20.1072 55.6811C14.8466 54.5746 10.1256 52.1014 7.09334 48.8636C5.42168 47.0788 4.35086 45.2858 3.60777 43.028C3.25844 41.9666 3.24641 41.7474 3.19734 35.6207L3.14673 29.3071L3.75142 30.0738C4.08393 30.4955 4.86868 31.3361 5.49544 31.9421ZM50.6865 32.9499V36.5436L46.1733 36.541L41.6602 36.5385L42.9391 35.843C45.1838 34.6225 46.5389 33.5711 48.6035 31.448C49.7067 30.3135 50.6268 29.3786 50.6479 29.3707C50.6691 29.3627 50.6865 30.9733 50.6865 32.9499Z" fill="#333333"/>
</svg>
