<svg width="73" height="73" viewBox="0 0 73 73" fill="none" xmlns="http://www.w3.org/2000/svg">
<path fill-rule="evenodd" clip-rule="evenodd" d="M4.86224 0.202839C3.67818 0.499136 2.79182 1.0051 1.89899 1.89456C0.979441 2.81073 0.423551 3.81957 0.167472 5.03725C-0.0575276 6.10698 -0.0549963 65.9169 0.170144 66.9688C0.687223 69.3847 2.62897 71.3265 5.04491 71.8436C6.09749 72.0688 65.9071 72.0712 66.9765 71.8461C69.3629 71.3435 71.3558 69.351 71.8546 66.9688C72.079 65.8972 72.0757 6.08617 71.8512 5.03725C71.3329 2.61512 69.3852 0.666339 66.9765 0.159807C65.8395 -0.0793957 5.82383 -0.0377707 4.86224 0.202839ZM66.6706 4.50484C67.0279 4.68709 67.3266 4.98578 67.5089 5.34311C67.79 5.89421 67.7919 6.10853 67.7919 36.003C67.7919 65.8975 67.79 66.1118 67.5089 66.6629C67.3266 67.0203 67.0279 67.3189 66.6706 67.5012C66.1195 67.7823 65.9052 67.7843 36.0003 67.7843H5.88486L5.32391 67.469C4.99471 67.2839 4.65271 66.9377 4.49619 66.6309C4.2366 66.1222 4.22957 65.2901 4.23533 35.9735C4.24096 7.22565 4.25291 5.81701 4.4945 5.36364C4.63372 5.10221 4.99499 4.7387 5.29719 4.55575L5.84661 4.22317L35.9812 4.22246C65.906 4.22176 66.1195 4.22373 66.6706 4.50484ZM33.2685 8.80529C29.4026 9.19764 27.3051 9.57395 24.6201 10.3567C22.326 11.0253 19.4991 12.1662 17.3076 13.3075C15.2882 14.3593 11.7056 16.6959 11.2771 17.2407C10.8955 17.7257 10.7647 18.4776 10.9543 19.0954C11.0391 19.3719 13.6571 22.9852 16.8439 27.2242C21.246 33.0797 22.7069 34.9274 23.1221 35.1648C23.9339 35.6287 24.6209 35.4978 25.8989 34.6353C32.12 30.4374 39.8959 30.4336 46.1083 34.6257C46.6746 35.0078 47.3484 35.3546 47.6059 35.3964C48.2541 35.5015 48.9597 35.2376 49.4684 34.6996C49.7046 34.4497 52.401 30.9156 55.4601 26.8459C61.3824 18.9674 61.3873 18.9597 61.0528 17.843C60.8567 17.1888 60.0124 16.4782 57.6937 15.0159C52.7425 11.8934 47.6577 10.0202 41.7104 9.12803C39.9518 8.86422 34.6753 8.66242 33.2685 8.80529ZM39.1747 13.0841C43.6082 13.495 47.5473 14.5588 51.4794 16.4073C53.246 17.2379 55.9794 18.8269 55.9794 19.0235C55.9794 19.1336 48.0344 29.7636 47.6214 30.2062C47.4868 30.3505 47.1502 30.2353 45.9157 29.6224C45.0699 29.2025 43.9324 28.7008 43.3879 28.5073C42.164 28.0722 39.3185 27.4249 38.6305 27.4249H38.1201L38.1198 23.9444C38.1196 20.9116 38.088 20.4011 37.8737 19.9746C37.1174 18.4692 34.904 18.4692 34.1477 19.9746C33.9334 20.4011 33.9017 20.9116 33.9016 23.9444L33.9013 27.4249L33.374 27.4262C32.6738 27.4278 30.1569 28.0054 28.7617 28.4845C28.1466 28.6957 26.9546 29.2129 26.1125 29.6341C24.8529 30.264 24.5504 30.3666 24.4069 30.2131C23.9871 29.7646 16.0419 19.1343 16.0419 19.0214C16.0419 18.6722 20.8195 16.1593 23.1435 15.2859C26.2062 14.135 29.8446 13.3264 33.2685 13.0356C34.5712 12.9249 37.7381 12.9509 39.1747 13.0841Z" fill="#333333"/>
</svg>
