<svg width="92" height="116" viewBox="0 0 92 116" fill="none" xmlns="http://www.w3.org/2000/svg">
<path d="M24.832 110.922C24.5156 111.301 24.0684 111.596 23.4902 111.807C22.9121 112.014 22.2715 112.117 21.5684 112.117C20.8301 112.117 20.1816 111.957 19.623 111.637C19.0684 111.312 18.6387 110.844 18.334 110.23C18.0332 109.617 17.8789 108.896 17.8711 108.068V107.488C17.8711 106.637 18.0137 105.9 18.2988 105.279C18.5879 104.654 19.002 104.178 19.541 103.85C20.084 103.518 20.7188 103.352 21.4453 103.352C22.457 103.352 23.248 103.594 23.8184 104.078C24.3887 104.559 24.7266 105.26 24.832 106.182H23.1211C23.043 105.693 22.8691 105.336 22.5996 105.109C22.334 104.883 21.9668 104.77 21.498 104.77C20.9004 104.77 20.4453 104.994 20.1328 105.443C19.8203 105.893 19.6621 106.561 19.6582 107.447V107.992C19.6582 108.887 19.8281 109.562 20.168 110.02C20.5078 110.477 21.0059 110.705 21.6621 110.705C22.3223 110.705 22.793 110.564 23.0742 110.283V108.812H21.4746V107.518H24.832V110.922ZM28.1309 112H26.373V103.469H28.1309V112ZM31.6289 110.588H35.9297V112H29.4316V110.969L33.6504 104.893H29.4375V103.469H35.8359V104.477L31.6289 110.588ZM38.9121 112H37.1543V103.469H38.9121V112ZM45.293 110.588H49.0254V112H43.5352V103.469H45.293V110.588ZM55.1719 108.303H51.7969V110.588H55.7578V112H50.0391V103.469H55.7461V104.893H51.7969V106.926H55.1719V108.303ZM56.7891 112V103.469H59.7773C60.8125 103.469 61.5977 103.668 62.1328 104.066C62.668 104.461 62.9355 105.041 62.9355 105.807C62.9355 106.225 62.8281 106.594 62.6133 106.914C62.3984 107.23 62.0996 107.463 61.7168 107.611C62.1543 107.721 62.498 107.941 62.748 108.273C63.002 108.605 63.1289 109.012 63.1289 109.492C63.1289 110.312 62.8672 110.934 62.3438 111.355C61.8203 111.777 61.0742 111.992 60.1055 112H56.7891ZM58.5469 108.285V110.588H60.0527C60.4668 110.588 60.7891 110.49 61.0195 110.295C61.2539 110.096 61.3711 109.822 61.3711 109.475C61.3711 108.693 60.9668 108.297 60.1582 108.285H58.5469ZM58.5469 107.043H59.8477C60.7344 107.027 61.1777 106.674 61.1777 105.982C61.1777 105.596 61.0645 105.318 60.8379 105.15C60.6152 104.979 60.2617 104.893 59.7773 104.893H58.5469V107.043ZM66.3223 112H64.5645V103.469H66.3223V112ZM74.9004 112H73.1426V108.344H69.7148V112H67.957V103.469H69.7148V106.926H73.1426V103.469H74.9004V112Z" fill="#ACAD6A"/>
<path d="M46.5 82C67.2107 82 84 65.2107 84 44.5C84 23.7893 67.2107 7 46.5 7C25.7893 7 9 23.7893 9 44.5C9 65.2107 25.7893 82 46.5 82Z" fill="#CFD15B" fill-opacity="0.25"/>
<path d="M46 7.66669C24.8016 7.66669 7.66663 24.8017 7.66663 46C7.66663 67.1983 24.8016 84.3333 46 84.3333C56.1666 84.3333 65.9168 80.2946 73.1057 73.1058C80.2946 65.9169 84.3333 56.1666 84.3333 46C84.3333 24.8017 67.0833 7.66669 46 7.66669ZM46 76.6667C37.8667 76.6667 30.0665 73.4357 24.3154 67.6846C18.5642 61.9335 15.3333 54.1333 15.3333 46C15.3333 37.8667 18.5642 30.0665 24.3154 24.3154C30.0665 18.5643 37.8667 15.3333 46 15.3333C54.1333 15.3333 61.9335 18.5643 67.6846 24.3154C73.4357 30.0665 76.6666 37.8667 76.6666 46C76.6666 54.1333 73.4357 61.9335 67.6846 67.6846C61.9335 73.4357 54.1333 76.6667 46 76.6667ZM62.0233 29.7467L57.96 33.81L53.8966 29.7467L49.8333 33.81L53.8966 37.8733L49.8333 41.9367L53.8966 46L57.96 41.9367L62.0233 46L66.0866 41.9367L62.0233 37.8733L66.0866 33.81L62.0233 29.7467ZM29.9766 46L34.04 41.9367L38.1033 46L42.1666 41.9367L38.1033 37.8733L42.1666 33.81L38.1033 29.7467L34.04 33.81L29.9766 29.7467L25.9133 33.81L29.9766 37.8733L25.9133 41.9367L29.9766 46ZM46 53.6667C37.0683 53.6667 29.4783 59.2633 26.4116 67.0833H65.5883C62.5216 59.2633 54.9316 53.6667 46 53.6667Z" fill="#ACAD6A"/>
</svg>
