<svg width="92" height="115" viewBox="0 0 92 115" fill="none" xmlns="http://www.w3.org/2000/svg">
<path d="M16.832 109.922C16.5156 110.301 16.0684 110.596 15.4902 110.807C14.9121 111.014 14.2715 111.117 13.5684 111.117C12.8301 111.117 12.1816 110.957 11.623 110.637C11.0684 110.312 10.6387 109.844 10.334 109.23C10.0332 108.617 9.87891 107.896 9.87109 107.068V106.488C9.87109 105.637 10.0137 104.9 10.2988 104.279C10.5879 103.654 11.002 103.178 11.541 102.85C12.084 102.518 12.7188 102.352 13.4453 102.352C14.457 102.352 15.248 102.594 15.8184 103.078C16.3887 103.559 16.7266 104.26 16.832 105.182H15.1211C15.043 104.693 14.8691 104.336 14.5996 104.109C14.334 103.883 13.9668 103.77 13.498 103.77C12.9004 103.77 12.4453 103.994 12.1328 104.443C11.8203 104.893 11.6621 105.561 11.6582 106.447V106.992C11.6582 107.887 11.8281 108.562 12.168 109.02C12.5078 109.477 13.0059 109.705 13.6621 109.705C14.3223 109.705 14.793 109.564 15.0742 109.283V107.812H13.4746V106.518H16.832V109.922ZM20.1309 111H18.373V102.469H20.1309V111ZM23.6289 109.588H27.9297V111H21.4316V109.969L25.6504 103.893H21.4375V102.469H27.8359V103.477L23.6289 109.588ZM30.9121 111H29.1543V102.469H30.9121V111ZM38.207 107.578L37.293 108.562V111H35.5352V102.469H37.293V106.336L38.0664 105.275L40.2402 102.469H42.4023L39.373 106.26L42.4902 111H40.3984L38.207 107.578ZM49.6094 102.469V108.088C49.6094 109.021 49.3164 109.76 48.7305 110.303C48.1484 110.846 47.3516 111.117 46.3398 111.117C45.3438 111.117 44.5527 110.854 43.9668 110.326C43.3809 109.799 43.082 109.074 43.0703 108.152V102.469H44.8281V108.1C44.8281 108.658 44.9609 109.066 45.2266 109.324C45.4961 109.578 45.8672 109.705 46.3398 109.705C47.3281 109.705 47.8301 109.186 47.8457 108.146V102.469H49.6094ZM54.209 107.877H52.8086V111H51.0508V102.469H54.2207C55.2285 102.469 56.0059 102.693 56.5527 103.143C57.0996 103.592 57.373 104.227 57.373 105.047C57.373 105.629 57.2461 106.115 56.9922 106.506C56.7422 106.893 56.3613 107.201 55.8496 107.432L57.6953 110.918V111H55.8086L54.209 107.877ZM52.8086 106.453H54.2266C54.668 106.453 55.0098 106.342 55.252 106.119C55.4941 105.893 55.6152 105.582 55.6152 105.188C55.6152 104.785 55.5 104.469 55.2695 104.238C55.043 104.008 54.6934 103.893 54.2207 103.893H52.8086V106.453ZM63.5312 109.242H60.4492L59.8633 111H57.9941L61.1699 102.469H62.7988L65.9922 111H64.123L63.5312 109.242ZM60.9238 107.818H63.0566L61.9844 104.625L60.9238 107.818ZM73.7266 111H71.9688L68.5469 105.387V111H66.7891V102.469H68.5469L71.9746 108.094V102.469H73.7266V111ZM82.0117 109.922C81.6953 110.301 81.248 110.596 80.6699 110.807C80.0918 111.014 79.4512 111.117 78.748 111.117C78.0098 111.117 77.3613 110.957 76.8027 110.637C76.248 110.312 75.8184 109.844 75.5137 109.23C75.2129 108.617 75.0586 107.896 75.0508 107.068V106.488C75.0508 105.637 75.1934 104.9 75.4785 104.279C75.7676 103.654 76.1816 103.178 76.7207 102.85C77.2637 102.518 77.8984 102.352 78.625 102.352C79.6367 102.352 80.4277 102.594 80.998 103.078C81.5684 103.559 81.9062 104.26 82.0117 105.182H80.3008C80.2227 104.693 80.0488 104.336 79.7793 104.109C79.5137 103.883 79.1465 103.77 78.6777 103.77C78.0801 103.77 77.625 103.994 77.3125 104.443C77 104.893 76.8418 105.561 76.8379 106.447V106.992C76.8379 107.887 77.0078 108.562 77.3477 109.02C77.6875 109.477 78.1855 109.705 78.8418 109.705C79.502 109.705 79.9727 109.564 80.2539 109.283V107.812H78.6543V106.518H82.0117V109.922Z" fill="#C95757"/>
<path d="M46 82C65.8823 82 82 65.8823 82 46C82 26.1177 65.8823 10 46 10C26.1177 10 10 26.1177 10 46C10 65.8823 26.1177 82 46 82Z" fill="#C95757" fill-opacity="0.25"/>
<path d="M46 7.66669C24.863 7.66669 7.66663 24.863 7.66663 46C7.66663 67.137 24.863 84.3333 46 84.3333C67.137 84.3333 84.3333 67.137 84.3333 46C84.3333 24.863 67.137 7.66669 46 7.66669ZM46 76.6667C29.0911 76.6667 15.3333 62.9088 15.3333 46C15.3333 29.0912 29.0911 15.3333 46 15.3333C62.9088 15.3333 76.6666 29.0912 76.6666 46C76.6666 62.9088 62.9088 76.6667 46 76.6667Z" fill="#C95757"/>
<path d="M32.5834 46C35.759 46 38.3334 43.4256 38.3334 40.25C38.3334 37.0744 35.759 34.5 32.5834 34.5C29.4077 34.5 26.8334 37.0744 26.8334 40.25C26.8334 43.4256 29.4077 46 32.5834 46Z" fill="#C95757"/>
<path d="M59.3898 45.9463C62.5506 45.9463 65.113 43.384 65.113 40.2232C65.113 37.0623 62.5506 34.5 59.3898 34.5C56.229 34.5 53.6666 37.0623 53.6666 40.2232C53.6666 43.384 56.229 45.9463 59.3898 45.9463Z" fill="#C95757"/>
<path d="M46 53.6667C34.5 53.6667 30.6666 65.1667 30.6666 65.1667H61.3333C61.3333 65.1667 57.5 53.6667 46 53.6667Z" fill="#C95757"/>
</svg>
