<svg width="58" height="72" viewBox="0 0 58 72" fill="none" xmlns="http://www.w3.org/2000/svg">
<path fill-rule="evenodd" clip-rule="evenodd" d="M1.25227 0.251963C0.898312 0.413401 0.545906 0.724463 0.338203 1.05873L0 1.60267V35.9957V70.3888L0.379125 70.9617C1.09673 72.0462 0.453234 71.9984 13.7358 71.9543C25.4247 71.9154 25.5056 71.9132 25.8999 71.621C26.1183 71.4591 26.4392 71.1175 26.6133 70.8619L26.9297 70.397V35.9855V1.57398L26.6133 1.10907C26.4392 0.853416 26.1183 0.511838 25.8999 0.349979C25.5053 0.0576196 25.4302 0.0556508 13.6655 0.0224633C2.36447 -0.00931793 1.80197 0.00108831 1.25227 0.251963ZM44.0156 0.216245C43.7836 0.337041 41.0154 3.00751 37.8641 6.15062L32.1344 11.8655L33.714 13.4496L35.2936 15.0336L38.9866 11.3426L42.6797 7.65151V35.9855V64.3194L38.9866 60.6283L35.2936 56.9373L33.7132 58.5222L32.1327 60.1072L37.8633 65.8292C43.5873 71.5447 44.0982 71.9855 45 71.9855C45.8972 71.9855 46.4182 71.5367 52.0664 65.8999C55.1794 62.7931 57.7266 60.1851 57.7266 60.1042C57.7266 60.0233 57.0302 59.263 56.179 58.4145L54.6314 56.8717L50.9056 60.5956L47.1797 64.3194V35.9855V7.65151L50.9064 11.3762L54.6331 15.1008L56.2143 13.5196L57.7955 11.9385L52.0306 6.15892C48.7966 2.91681 46.0669 0.292885 45.8131 0.182354C45.2278 -0.0723179 44.5455 -0.059521 44.0156 0.216245ZM22.4297 35.9855V67.4855H13.4297H4.42969V64.1105V60.7355H10.0547H15.6797V58.4855V56.2355H10.0547H4.42969V52.8605V49.4855H7.80469H11.1797V47.2355V44.9855H7.80469H4.42969V41.6105V38.2355H10.0547H15.6797V35.9855V33.7355H10.0547H4.42969V30.3605V26.9855H7.80469H11.1797V24.7355V22.4855H7.80469H4.42969V19.1105V15.7355H10.0547H15.6797V13.4855V11.2355H10.0547H4.42969V7.86048V4.48548H13.4297H22.4297V35.9855Z" fill="#333333"/>
</svg>
